<?xml version="1.0" encoding="utf-8"?>
<!-- Generator: Adobe Illustrator 25.1.0, SVG Export Plug-In . SVG Version: 6.00 Build 0)  -->
<svg version="1.1" id="Layer_1" xmlns="http://www.w3.org/2000/svg" xmlns:xlink="http://www.w3.org/1999/xlink" x="0px" y="0px"
	 viewBox="0 0 136.8 136.8" style="enable-background:new 0 0 136.8 136.8;" xml:space="preserve">
<style type="text/css">
	.st0{opacity:0;fill:#FFFFFF;}
	.st1{fill:none;}
	.st2{fill:#27519A;}
</style>
<rect class="st0" width="136.8" height="136.8"/>
<g id="VIC_GOV_LOGO_FA_BLACK" transform="translate(0 -0.5)">
	<line id="Line_260" class="st1" x1="63.3" y1="71.6" x2="67.5" y2="71.6"/>
	<path id="Path_241773" class="st2" d="M80.8,56.1c-4.3,0.2-7.8,3.8-7.6,8.2c0.2,4.3,3.8,7.8,8.2,7.6c4.3-0.2,7.6-3.6,7.6-7.9
		c0-4.4-3.6-8-8-7.9C80.9,56.1,80.9,56.1,80.8,56.1 M80.8,67.8c-2.1,0-3.8-1.7-3.7-3.8c0-2.1,1.7-3.8,3.8-3.7c2.1,0,3.7,1.7,3.7,3.8
		C84.6,66.2,82.9,67.8,80.8,67.8z"/>
	<path id="Path_241774" class="st2" d="M103.8,61.9c0-3-2.5-5.6-5.6-5.6c-0.1,0-0.1,0-0.2,0h-6.9v15.2h4.2v-4.2h2l1.9,4.2h4.7
		l-2.6-5.1C102.8,65.5,103.8,63.8,103.8,61.9 M98,63.7h-2.8v-3.6H98c0.9,0.1,1.6,0.9,1.6,1.8C99.6,62.9,99,63.6,98,63.7L98,63.7z"/>
	<rect id="Rectangle_24743" x="106.3" y="56.4" class="st2" width="4.2" height="15.2"/>
	<g id="Group_52313" transform="translate(0 0.5)">
		<path id="Path_241775" class="st2" d="M120.8,55.9h-1.6l-7,15.2h4.5l0.7-1.7h5.2l0.7,1.7h4.5L120.8,55.9 M118.7,65.8l1.3-3h0.1
			l1.3,3H118.7z"/>
		<path id="Path_241776" class="st2" d="M61.5,55.9l9.8-21.2H9L18.9,56h4.6l3.8,8.2l3.8-8.2h4.6L28.8,71h-3l14.4,31.1L55,70.3
			c-3.7,2.2-8.5,0.9-10.7-2.9c-2.2-3.7-0.9-8.5,2.9-10.7c3.7-2.2,8.4-0.9,10.6,2.8l-3.5,2.1c-1-1.7-3.4-2.3-5.1-1.3
			c-1.7,1-2.3,3.4-1.3,5.1c0.7,1.1,1.9,1.8,3.2,1.8s2.5-0.7,3.2-1.8l2.3,1.4l3.3-7.1h3.5v11.5h4.2V59.7h4.2v-3.7L61.5,55.9 M36.9,56
			h4.3V71h-4.3V56z"/>
	</g>
	<line id="Line_261" class="st1" x1="63.3" y1="71.6" x2="67.5" y2="71.6"/>
	<path id="Path_241777" class="st2" d="M68.1,79.7c-0.6-0.4-1.4-0.6-2.2-0.6c-0.9,0-1.5,0.3-1.5,1s0.7,0.7,1.6,0.9l0.4,0.1
		c1.4,0.3,2.4,0.8,2.4,2.1c0,1.7-1.5,2.4-3.1,2.4c-1.1,0-2.3-0.3-3.2-1l0.8-1.2c0.7,0.5,1.6,0.8,2.4,0.8c0.9,0,1.5-0.3,1.5-1
		c0-0.5-0.5-0.7-1.7-0.9l-0.4-0.1c-1.3-0.3-2.3-0.8-2.3-2.2c0-1.6,1.4-2.4,3-2.4c1,0,2,0.3,2.9,0.8L68.1,79.7"/>
	<path id="Path_241778" class="st2" d="M73.6,81.4h-1.9v1.9c0,0.7,0.3,0.9,0.8,0.9c0.3,0,0.7-0.2,1-0.3l0.5,1.1
		c-0.5,0.3-1.1,0.5-1.7,0.5c-1.3,0-2-0.7-2-2.1v-2h-1v-1.3h1v-1.6h1.4v1.6h1.9L73.6,81.4"/>
	<path id="Path_241779" class="st2" d="M75.7,82.8c0.1,0.8,0.7,1.3,1.5,1.3c0.8-0.1,1.3-0.7,1.3-1.5c-0.1-0.7-0.6-1.3-1.4-1.3
		c-0.8,0-1.4,0.6-1.4,1.3C75.7,82.7,75.7,82.8,75.7,82.8 M79.8,85.4h-1.4v-0.6c-0.3,0.4-1,0.7-1.6,0.7c-1.6-0.1-2.7-1.5-2.5-3
		c0.1-1.4,1.2-2.4,2.5-2.5c0.6,0,1.2,0.3,1.6,0.7v-0.6h1.4V85.4z"/>
	<path id="Path_241780" class="st2" d="M84.9,81.4H83v1.9c0,0.7,0.3,0.9,0.8,0.9c0.3,0,0.7-0.2,1-0.3l0.5,1.1
		c-0.5,0.3-1.1,0.5-1.7,0.5c-1.3,0-2-0.7-2-2.1v-2h-1v-1.3h1v-1.6h1.4v1.6h1.9L84.9,81.4"/>
	<path id="Path_241781" class="st2" d="M87,82.2h2.3c0-0.6-0.5-1-1.1-1C87.5,81.2,87,81.6,87,82.2 M90.7,82.8c0,0.2,0,0.3,0,0.4H87
		c0.1,0.7,0.7,1.1,1.4,1.1c0.5,0,1-0.2,1.3-0.5l0.8,1c-0.6,0.5-1.4,0.9-2.3,0.8c-1.6,0-2.8-1.3-2.7-2.8c0-1.5,1.2-2.7,2.7-2.7
		c1.4,0,2.5,1.1,2.5,2.5C90.7,82.6,90.7,82.7,90.7,82.8"/>
	<path id="Path_241782" class="st2" d="M69.4,88.6l-1.1,1c-1-1-2.5-1-3.5,0s-1,2.5,0,3.5c0.4,0.4,1,0.7,1.7,0.7c1,0.1,2-0.6,2.2-1.7
		h-1.9v-1.3h3.5c0,0.2,0,0.3,0,0.4c0.2,2-1.4,3.8-3.4,3.9c-0.1,0-0.2,0-0.3,0c-2.2-0.1-3.9-1.9-3.8-4.1c0.1-2.2,1.9-3.9,4.1-3.8
		C67.8,87.4,68.7,87.9,69.4,88.6"/>
	<path id="Path_241783" class="st2" d="M72.4,92.6c0,0.8,0.5,1.4,1.3,1.5h0.1c0.8,0,1.4-0.7,1.4-1.5c0-0.8-0.6-1.4-1.4-1.4
		S72.4,91.7,72.4,92.6C72.4,92.5,72.4,92.5,72.4,92.6 M76.7,92.6c0.1,1.6-1.2,2.9-2.8,3c-1.6,0.1-2.9-1.2-3-2.8
		c-0.1-1.6,1.2-2.9,2.8-3h0.1c1.5-0.1,2.8,1.1,2.9,2.6C76.7,92.4,76.7,92.5,76.7,92.6"/>
	<path id="Path_241784" class="st2" d="M80.5,95.2h-1.7l-2.1-5.3h1.6l1.4,3.7l1.4-3.7h1.5L80.5,95.2"/>
	<path id="Path_241785" class="st2" d="M84.2,92h2.3c-0.1-0.6-0.6-1.1-1.3-1C84.6,91,84.2,91.5,84.2,92 M87.9,92.5
		c0,0.2,0,0.3,0,0.4h-3.7c0.1,0.7,0.7,1.1,1.4,1.1c0.5,0,1-0.2,1.3-0.5l0.8,1c-0.6,0.5-1.4,0.9-2.3,0.8c-1.6,0-2.8-1.3-2.7-2.8
		c0-1.5,1.2-2.7,2.7-2.7c1.4,0,2.5,1.1,2.5,2.5C87.9,92.4,87.9,92.5,87.9,92.5"/>
	<path id="Path_241786" class="st2" d="M92.5,89.9l-0.3,1.4c-0.3-0.1-0.5-0.2-0.9-0.2c-0.6,0-1,0.4-1.1,1c0,0.1,0,0.2,0,0.2v2.9
		h-1.4v-5.3h1.4v0.6c0.3-0.5,0.9-0.8,1.5-0.7C91.9,89.8,92.2,89.8,92.5,89.9"/>
	<path id="Path_241787" class="st2" d="M98.2,91.8v3.3h-1.5v-2.9c0-0.8-0.3-1.1-1-1.1c-0.6,0-1.1,0.4-1.1,1c0,0.1,0,0.1,0,0.2v2.9
		h-1.4v-5.3h1.4v0.6c0.3-0.5,1-0.8,1.6-0.8c1-0.1,2,0.8,2.1,1.8C98.2,91.7,98.2,91.8,98.2,91.8"/>
	<path id="Path_241788" class="st2" d="M107.9,91.8v3.3h-1.4v-2.9c0-0.8-0.3-1.1-1-1.1c-0.6,0-1.1,0.4-1.1,1c0,0.1,0,0.1,0,0.2v2.9
		H103v-2.9c0-0.8-0.3-1.1-1-1.1c-0.6,0-1.1,0.4-1.1,1c0,0.1,0,0.1,0,0.2v2.9h-1.4V90h1.4v0.6c0.3-0.5,1-0.8,1.6-0.8
		c0.7,0,1.4,0.3,1.7,0.9c0.3-0.6,1-1,1.8-0.9c1-0.1,2,0.7,2.1,1.7C107.9,91.6,107.9,91.7,107.9,91.8"/>
	<path id="Path_241789" class="st2" d="M110.3,92h2.3c0-0.6-0.5-1-1.1-1C110.8,91,110.3,91.4,110.3,92 M114,92.5c0,0.2,0,0.3,0,0.4
		h-3.7c0.1,0.7,0.7,1.1,1.4,1.1c0.5,0,1-0.2,1.3-0.5l0.8,1c-0.6,0.5-1.4,0.9-2.3,0.8c-1.6,0-2.8-1.3-2.7-2.8c0-1.5,1.2-2.7,2.7-2.7
		c1.4,0,2.5,1.1,2.5,2.5C114,92.4,114,92.5,114,92.5"/>
	<path id="Path_241790" class="st2" d="M119.9,91.8v3.3h-1.4v-2.9c0-0.8-0.3-1.1-1-1.1c-0.6,0-1.1,0.4-1.1,1c0,0.1,0,0.1,0,0.2v2.9
		h-1.4v-5.3h1.4v0.6c0.3-0.5,1-0.8,1.6-0.8c1-0.1,2,0.8,2.1,1.8C119.9,91.7,119.9,91.8,119.9,91.8"/>
	<path id="Path_241791" class="st2" d="M124.9,91.2H123v1.9c0,0.7,0.3,0.9,0.8,0.9c0.3,0,0.7-0.2,1-0.3l0.5,1.1
		c-0.5,0.3-1.1,0.5-1.7,0.5c-1.3,0-2-0.7-2-2.1v-2h-1v-1.3h1v-1.6h1.4v1.6h1.9L124.9,91.2"/>
</g>
</svg>
